<svg width="16" height="16" viewBox="0 0 16 16" fill="none" xmlns="http://www.w3.org/2000/svg">
<rect width="16" height="16" fill="white"/>
<path d="M11.4191 5.67725L10.7456 6.43496C10.9678 6.6309 11.1457 6.87186 11.2676 7.14185C11.3895 7.41184 11.4525 7.70468 11.4525 8.0009C11.4525 8.29713 11.3895 8.58996 11.2676 8.85995C11.1457 9.12995 10.9678 9.37091 10.7456 9.56685L11.4191 10.3246C11.7488 10.0338 12.0128 9.67626 12.1937 9.27562C12.3745 8.87499 12.4681 8.44046 12.4681 8.0009C12.4681 7.56134 12.3745 7.12681 12.1937 6.72618C12.0128 6.32555 11.7488 5.96799 11.4191 5.67725Z" fill="black"/>
<path d="M13.1367 3.90917L12.4463 4.65005C12.9107 5.07594 13.2816 5.59373 13.5353 6.17057C13.789 6.7474 13.92 7.37067 13.92 8.00083C13.92 8.63098 13.789 9.25426 13.5353 9.83109C13.2816 10.4079 12.9107 10.9257 12.4463 11.3516L13.1367 12.0925C13.7058 11.5719 14.1604 10.9385 14.4713 10.2326C14.7823 9.52667 14.9429 8.76377 14.9429 7.99241C14.9429 7.22105 14.7823 6.45815 14.4713 5.75225C14.1604 5.04636 13.7058 4.41295 13.1367 3.89233V3.90917Z" fill="black"/>
<path d="M9.2474 2.05703C9.16561 2.01447 9.07372 1.99511 8.98171 2.00105C8.8897 2.00698 8.80107 2.03799 8.72542 2.09071L4.21281 5.12157H1.83864C1.70467 5.12157 1.57618 5.17479 1.48145 5.26952C1.38672 5.36425 1.3335 5.49274 1.3335 5.62671V10.3751C1.3335 10.509 1.38672 10.6375 1.48145 10.7322C1.57618 10.827 1.70467 10.8802 1.83864 10.8802H4.21281L8.72542 13.9111C8.8016 13.9634 8.89069 13.9939 8.983 13.9992C9.07531 14.0044 9.16728 13.9843 9.24891 13.9408C9.33054 13.8974 9.39868 13.8324 9.44592 13.7529C9.49316 13.6735 9.51768 13.5826 9.51681 13.4901V2.49482C9.5152 2.40442 9.48935 2.3161 9.44196 2.2391C9.39457 2.16209 9.32738 2.09921 9.2474 2.05703V2.05703Z" fill="black"/>
</svg>
