<svg width="16" height="16" viewBox="0 0 16 16" fill="none" xmlns="http://www.w3.org/2000/svg">
<g clip-path="url(#clip0)">
<path d="M10.9079 10.095C10.8657 10.1234 10.83 10.1604 10.8031 10.2035C10.7763 10.2467 10.7589 10.2951 10.7522 10.3455C10.7455 10.3959 10.7495 10.4472 10.7641 10.4959C10.7787 10.5446 10.8034 10.5897 10.8367 10.6281C10.87 10.6666 10.9111 10.6975 10.9573 10.7188C11.0034 10.7402 11.0536 10.7515 11.1044 10.752C11.1553 10.7525 11.2057 10.7422 11.2522 10.7218C11.2988 10.7013 11.3405 10.6712 11.3746 10.6335C11.7069 10.3404 11.973 9.97997 12.1553 9.57612C12.3376 9.17227 12.4319 8.73426 12.4319 8.29117C12.4319 7.84808 12.3376 7.41006 12.1553 7.00622C11.973 6.60237 11.7069 6.24194 11.3746 5.94886C11.3405 5.9111 11.2988 5.88101 11.2522 5.86057C11.2057 5.84014 11.1553 5.82984 11.1044 5.83034C11.0536 5.83084 11.0034 5.84215 10.9573 5.8635C10.9111 5.88485 10.87 5.91576 10.8367 5.95419C10.8034 5.99262 10.7787 6.03769 10.7641 6.08641C10.7495 6.13513 10.7455 6.18639 10.7522 6.23679C10.7589 6.2872 10.7763 6.3356 10.8031 6.37879C10.83 6.42198 10.8657 6.45897 10.9079 6.48732C11.1638 6.71302 11.3688 6.9906 11.5092 7.30161C11.6496 7.61262 11.7222 7.94994 11.7222 8.29117C11.7222 8.6324 11.6496 8.96972 11.5092 9.28073C11.3688 9.59174 11.1638 9.86931 10.9079 10.095Z" fill="black"/>
<path d="M12.7205 11.9796C12.6491 12.0439 12.6062 12.1339 12.6011 12.2298C12.5961 12.3257 12.6293 12.4197 12.6936 12.4911C12.7579 12.5626 12.8479 12.6055 12.9438 12.6106C13.0397 12.6156 13.1337 12.5823 13.2051 12.5181C13.7928 11.98 14.262 11.3255 14.583 10.5963C14.904 9.86701 15.0698 9.07895 15.0698 8.28217C15.0698 7.4854 14.904 6.69734 14.583 5.96809C14.262 5.23885 13.7928 4.58437 13.2051 4.04628C13.1727 4.00651 13.1322 3.97415 13.0862 3.95138C13.0403 3.92861 12.9899 3.91595 12.9387 3.91426C12.8874 3.91257 12.8364 3.92188 12.789 3.94157C12.7417 3.96127 12.6991 3.99088 12.6641 4.02842C12.6292 4.06597 12.6027 4.11056 12.5864 4.15921C12.5701 4.20786 12.5645 4.25942 12.5698 4.31044C12.5752 4.36145 12.5914 4.41073 12.6174 4.45495C12.6434 4.49917 12.6785 4.53731 12.7205 4.56679C13.2347 5.03762 13.6453 5.61029 13.9262 6.24838C14.207 6.88647 14.3521 7.57602 14.3521 8.2732C14.3521 8.97038 14.207 9.65993 13.9262 10.298C13.6453 10.9361 13.2347 11.5088 12.7205 11.9796Z" fill="black"/>
<path d="M9.29232 14.1514V2.41291C9.2933 2.34766 9.27646 2.28337 9.24363 2.22697C9.2108 2.17057 9.16322 2.12418 9.106 2.09281C9.04878 2.06143 8.98408 2.04624 8.91887 2.04888C8.85367 2.05152 8.79041 2.07188 8.73591 2.10778L3.87181 5.37445H2.36412C1.9833 5.37445 1.61807 5.52573 1.34879 5.79501C1.0795 6.0643 0.928223 6.42952 0.928223 6.81035V9.73599C0.928223 10.1168 1.0795 10.482 1.34879 10.7513C1.61807 11.0206 1.9833 11.1719 2.36412 11.1719H3.87181L8.73591 14.4386C8.79511 14.4753 8.86371 14.494 8.93335 14.4924L9.09489 14.4565C9.15197 14.4278 9.20037 14.3844 9.23507 14.3308C9.26978 14.2771 9.28954 14.2152 9.29232 14.1514V14.1514ZM3.62053 10.4539H2.36412C2.17371 10.4539 1.9911 10.3783 1.85645 10.2437C1.72181 10.109 1.64617 9.9264 1.64617 9.73599V6.81035C1.64617 6.61993 1.72181 6.43732 1.85645 6.30268C1.9911 6.16804 2.17371 6.0924 2.36412 6.0924H3.62053V10.4539ZM8.57438 13.4693L4.33848 10.6334V5.93086L8.57438 3.09496V13.4693Z" fill="black"/>
</g>
<defs>
<clipPath id="clip0">
<rect width="14" height="12.5641" fill="white" transform="translate(1 2)"/>
</clipPath>
</defs>
</svg>
